<?xml version="1.0" standalone="no"?>
<!DOCTYPE svg PUBLIC "-//W3C//DTD SVG 20010904//EN"
 "http://www.w3.org/TR/2001/REC-SVG-20010904/DTD/svg10.dtd">
<svg version="1.0" xmlns="http://www.w3.org/2000/svg"
 width="2211.000000pt" height="2211.000000pt" viewBox="0 0 2211.000000 2211.000000"
 preserveAspectRatio="xMidYMid meet">

<g transform="translate(0.000000,2211.000000) scale(0.100000,-0.100000)"
fill="#000000" stroke="none">
<path d="M10485 22089 c-2386 -121 -4668 -1016 -6506 -2551 -510 -425 -982
-897 -1407 -1407 -1207 -1444 -2021 -3163 -2371 -5006 -206 -1086 -248 -2246
-120 -3345 203 -1755 813 -3411 1800 -4880 582 -868 1290 -1654 2098 -2328
1444 -1207 3163 -2021 5006 -2371 1086 -206 2246 -248 3345 -120 1755 203
3411 813 4880 1800 868 582 1654 1290 2328 2098 1207 1444 2021 3163 2371
5006 206 1086 248 2246 120 3345 -203 1755 -813 3411 -1800 4880 -721 1075
-1641 2029 -2690 2791 -1196 868 -2556 1488 -3989 1818 -639 148 -1290 238
-1959 271 -233 11 -869 11 -1106 -1z m1155 -270 c2170 -108 4274 -892 6020
-2244 592 -458 1182 -1027 1674 -1615 1309 -1564 2148 -3478 2411 -5500 62
-482 88 -888 88 -1405 0 -394 -12 -661 -44 -1000 -191 -2055 -947 -3968 -2214
-5605 -282 -365 -541 -657 -899 -1016 -516 -516 -994 -912 -1579 -1308 -1625
-1101 -3482 -1726 -5462 -1837 -270 -15 -890 -15 -1160 0 -2217 125 -4276 892
-6025 2246 -592 458 -1182 1027 -1674 1615 -766 916 -1389 1982 -1809 3095
-391 1040 -614 2102 -678 3230 -15 270 -15 890 0 1160 125 2218 892 4276 2246
6025 458 592 1027 1182 1615 1674 1564 1309 3478 2148 5500 2411 651 84 1302
109 1990 74z"/>
<path d="M4200 12779 c-982 -496 -1913 -965 -2069 -1043 l-284 -143 304 -155
c167 -86 608 -309 979 -496 371 -188 716 -361 765 -387 50 -25 541 -273 1093
-551 l1003 -505 735 371 734 370 1620 0 1620 0 0 1415 0 1415 -1752 0 -1751 0
-603 305 c-332 168 -604 305 -606 305 -2 0 -806 -406 -1788 -901z"/>
<path d="M15133 13375 l-602 -305 -1751 0 -1750 0 0 -1415 0 -1415 1621 0
1621 0 734 -371 734 -370 987 498 c543 274 1012 508 1042 520 30 12 79 37 110
56 31 19 288 150 571 291 283 142 544 273 580 291 36 18 239 121 453 229 213
108 387 200 387 205 0 7 -4119 2092 -4132 2091 -2 0 -274 -138 -605 -305z"/>
</g>
</svg>
